<svg width="403" height="89" viewBox="0 0 403 89" fill="none" xmlns="http://www.w3.org/2000/svg">
<path d="M110.9 67.44C107.66 67.44 104.68 66.86 101.96 65.7C99.28 64.54 96.98 62.94 95.06 60.9C93.14 58.82 91.64 56.36 90.56 53.52C89.52 50.68 89 47.6 89 44.28C89 40.96 89.52 37.88 90.56 35.04C91.6 32.2 93.06 29.74 94.94 27.66C96.86 25.58 99.16 23.96 101.84 22.8C104.56 21.6 107.58 21 110.9 21C113.38 21 115.66 21.3 117.74 21.9C119.82 22.46 121.62 23.32 123.14 24.48C125.18 25.96 126.58 27.42 128.38 29.88C129.58 31.52 132.08 37.42 132.08 39.92H122.58C122.26 37.8 118.18 33.28 116.58 31.92C114.58 30.92 113.42 30.42 110.9 30.42C108.98 30.42 107.52 30.66 106.08 31.42C104.68 32.14 103.46 33.1 102.5 34.42C101.58 35.74 100.64 36.6 100.16 38.4C99.68 40.2 99.44 42.16 99.44 44.28C99.44 46.4 99.7 48.36 100.22 50.16C100.78 51.96 101.54 53.52 102.5 54.84C103.5 56.12 104.7 57.14 106.1 57.9C107.54 58.62 109.14 58.98 110.9 58.98C113.66 58.98 115.84 58.2 117.44 56.64C119.04 55.08 119.96 53.14 120.2 50.82H132.08C131.92 53.06 131.08 55.92 129.58 57.9C128.62 59.86 127.1 61.4 125.58 62.92C123.9 64.6 121.38 65.34 119.06 66.18C116.74 67.02 114.02 67.44 110.9 67.44Z" fill="white"/>
<path d="M151.147 67.44C148.587 67.44 146.267 67.02 144.187 66.18C142.107 65.3 140.327 64.1 138.847 62.58C137.367 61.06 136.227 59.28 135.427 57.24C134.627 55.16 134.227 52.92 134.227 50.52C134.227 48.12 134.627 45.9 135.427 43.86C136.227 41.78 137.367 39.98 138.847 38.46C140.327 36.94 142.107 35.76 144.187 34.92C146.267 34.04 148.587 33.6 151.147 33.6C153.667 33.6 155.967 34.04 158.047 34.92C160.127 35.76 161.887 36.94 163.327 38.46C164.807 39.98 165.947 41.78 166.747 43.86C167.547 45.9 167.947 48.12 167.947 50.52C167.947 52.92 167.547 55.16 166.747 57.24C165.947 59.28 164.807 61.06 163.327 62.58C161.887 64.1 160.127 65.3 158.047 66.18C155.967 67.02 153.667 67.44 151.147 67.44ZM151.087 59.92C153.447 59.92 154.58 59.42 156.487 57.84C157.767 55.96 158.407 53.52 158.407 50.52C158.407 47.48 157.36 45.14 156.08 43.26C153.58 41.92 153.447 41.92 151.087 41.92C148.687 41.92 149.08 42.08 146.58 43.42C145.34 45.3 143.767 47.48 143.767 50.52C143.767 53.52 144.387 55.96 145.627 57.84C147.58 59.42 148.687 59.92 151.087 59.92Z" fill="white"/>
<path d="M172.7 34.5H181.76V39.48H181.94C182.98 37.56 184.26 36.1 185.78 35.1C187.34 34.1 189.26 33.6 191.54 33.6C195.74 33.6 198.66 35.62 200.3 39.66H200.42C201.74 37.5 203.24 35.96 204.92 35.04C206.64 34.08 208.52 33.6 210.56 33.6C214.12 33.6 216.8 34.68 218.6 36.84C220.4 38.96 221.3 41.8 221.3 45.36V66.42H211.94V46.92C211.94 45.16 211.52 43.8 210.68 42.84C209.88 41.84 208.72 41.34 207.2 41.34C205.52 41.34 204.18 41.98 203.18 43.26C202.22 44.54 201.74 46.2 201.74 48.24V66.42H192.32V46.92C192.32 45.16 191.92 43.8 191.12 42.84C190.36 41.84 189.2 41.34 187.64 41.34C185.96 41.34 184.62 41.98 183.62 43.26C182.62 44.54 182.12 46.2 182.12 48.24V66.42H172.7V34.5Z" fill="white"/>
<path d="M227.309 34.5H236.369V39.06H236.549C238.709 35.42 241.949 33.6 246.269 33.6C248.389 33.6 250.289 34.02 251.969 34.86C253.689 35.7 255.129 36.88 256.289 38.4C257.489 39.88 258.409 41.66 259.049 43.74C259.689 45.78 260.009 48.02 260.009 50.46C260.009 53.06 259.669 55.42 258.989 57.54C258.349 59.62 257.409 61.4 256.169 62.88C254.969 64.32 253.489 65.44 251.729 66.24C250.009 67.04 248.089 67.44 245.969 67.44C243.849 67.44 241.969 67 240.329 66.12C238.729 65.24 237.469 64.02 236.549 62.46H236.429C236.509 63.06 236.569 63.94 236.609 65.1C236.689 66.26 236.729 67.7 236.729 69.42V73.6919C236.729 75.7178 235.507 77.5435 233.634 78.3151L227.309 80.92V34.5ZM243.749 60.12C245.909 60.12 247.569 59.28 248.729 57.6C249.889 55.92 250.469 53.64 250.469 50.76C250.469 47.88 249.909 45.56 248.789 43.8C247.669 42 245.949 41.1 243.629 41.1C242.429 41.1 241.369 41.36 240.449 41.88C239.569 42.36 238.829 43.04 238.229 43.92C237.629 44.8 237.169 45.82 236.849 46.98C236.569 48.14 236.429 49.4 236.429 50.76C236.429 53.52 237.049 55.78 238.289 57.54C239.529 59.26 241.349 60.12 243.749 60.12Z" fill="white"/>
<path d="M263.978 59.58C263.978 57.9231 265.321 56.58 266.978 56.58H270.938C272.595 56.58 273.938 57.9231 273.938 59.58V63.42C273.938 65.0769 272.595 66.42 270.938 66.42H266.978C265.321 66.42 263.978 65.0769 263.978 63.42V59.58Z" fill="white"/>
<path d="M272.307 21.78H282.928L289.527 43.26C289.887 44.5 290.247 45.88 290.607 47.4C290.967 48.92 291.308 50.34 291.628 51.66C291.988 53.26 292.307 54.84 292.587 56.4H292.708C292.988 54.84 293.307 53.26 293.667 51.66C293.947 50.34 294.268 48.92 294.628 47.4C294.988 45.88 295.348 44.5 295.708 43.26L302.247 21.78H312.568L297.807 66.42H287.068L272.307 21.78Z" fill="white"/>
<path d="M327.222 67.44C324.662 67.44 322.342 67.02 320.262 66.18C318.182 65.3 316.402 64.1 314.922 62.58C313.442 61.06 312.302 59.28 311.502 57.24C310.702 55.16 310.302 52.92 310.302 50.52C310.302 48.12 310.702 45.9 311.502 43.86C312.302 41.78 313.442 39.98 314.922 38.46C316.402 36.94 318.182 35.76 320.262 34.92C322.342 34.04 324.662 33.6 327.222 33.6C329.742 33.6 332.042 34.04 334.122 34.92C336.202 35.76 337.962 36.94 339.402 38.46C340.882 39.98 342.022 41.78 342.822 43.86C343.622 45.9 344.022 48.12 344.022 50.52C344.022 52.92 343.622 55.16 342.822 57.24C342.022 59.28 340.882 61.06 339.402 62.58C337.962 64.1 336.202 65.3 334.122 66.18C332.042 67.02 329.742 67.44 327.222 67.44ZM327.162 60.6C329.522 60.6 331.322 59.68 332.562 57.84C333.842 55.96 334.482 53.52 334.482 50.52C334.482 47.48 333.842 45.02 332.562 43.14C331.322 41.26 329.522 40.32 327.162 40.32C324.762 40.32 322.942 41.26 321.702 43.14C320.462 45.02 319.842 47.48 319.842 50.52C319.842 53.52 320.462 55.96 321.702 57.84C322.942 59.68 324.762 60.6 327.162 60.6Z" fill="white"/>
<path d="M346.328 34.5H351.128V31.0461C351.128 29.4464 351.894 27.9433 353.187 27.0024L360.368 21.78V34.5H366.608V40.5H360.368V56.34C360.368 57.54 360.668 58.36 361.268 58.8C361.908 59.2 362.788 59.4 363.908 59.4C364.228 59.4 364.588 59.4 364.988 59.4C365.388 59.36 365.748 59.32 366.068 59.28H366.548V66.3C366.028 66.38 365.308 66.48 364.388 66.6C363.468 66.72 362.368 66.78 361.088 66.78C359.608 66.78 358.248 66.66 357.008 66.42C355.808 66.14 354.768 65.68 353.888 65.04C353.008 64.36 352.328 63.5 351.848 62.46C351.368 61.38 351.128 60.02 351.128 58.38V40.5H346.328V34.5Z" fill="white"/>
<path d="M386.869 67.38C384.269 67.38 381.929 66.96 379.849 66.12C377.769 65.24 375.989 64.04 374.509 62.52C373.069 61 371.949 59.22 371.149 57.18C370.389 55.14 370.009 52.92 370.009 50.52C370.009 48.12 370.409 45.9 371.209 43.86C372.009 41.78 373.129 39.98 374.569 38.46C376.009 36.94 377.729 35.76 379.729 34.92C381.729 34.04 383.949 33.6 386.389 33.6C388.669 33.6 390.709 33.96 392.509 34.68C394.349 35.4 395.969 36.4 397.369 37.68C399.169 39.44 400.489 41.62 401.329 44.22C402.169 46.82 402.569 49.7 402.529 52.86H379.249C379.569 55.26 380.369 57.14 381.649 58.5C382.929 59.86 384.709 60.54 386.989 60.54C388.469 60.54 389.669 60.28 390.589 59.76C391.549 59.2 392.289 58.42 392.809 57.42H401.929C401.529 58.82 400.889 60.14 400.009 61.38C399.169 62.58 398.109 63.64 396.829 64.56C395.589 65.44 394.129 66.12 392.449 66.6C390.769 67.12 388.909 67.38 386.869 67.38ZM386.389 40.26C384.229 40.26 382.589 40.9 381.469 42.18C380.349 43.46 379.629 45.2 379.309 47.4H392.929C392.769 45.16 392.109 43.42 390.949 42.18C389.789 40.9 388.269 40.26 386.389 40.26Z" fill="white"/>
<path d="M151.147 67.44C148.587 67.44 146.267 67.02 144.187 66.18C142.107 65.3 140.327 64.1 138.847 62.58C137.367 61.06 136.227 59.28 135.427 57.24C134.627 55.16 134.227 52.92 134.227 50.52C134.227 48.12 134.627 45.9 135.427 43.86C136.227 41.78 137.367 39.98 138.847 38.46C140.327 36.94 142.107 35.76 144.187 34.92C146.267 34.04 148.587 33.6 151.147 33.6C153.667 33.6 155.967 34.04 158.047 34.92C160.127 35.76 161.887 36.94 163.327 38.46C164.807 39.98 165.947 41.78 166.747 43.86C167.547 45.9 167.947 48.12 167.947 50.52C167.947 52.92 167.547 55.16 166.747 57.24C165.947 59.28 164.807 61.06 163.327 62.58C161.887 64.1 160.127 65.3 158.047 66.18C155.967 67.02 153.667 67.44 151.147 67.44ZM151.087 59.92C153.447 59.92 154.58 59.42 156.487 57.84C157.767 55.96 158.407 53.52 158.407 50.52C158.407 47.48 157.36 45.14 156.08 43.26C153.58 41.92 153.447 41.92 151.087 41.92C148.687 41.92 149.08 42.08 146.58 43.42C145.34 45.3 143.767 47.48 143.767 50.52C143.767 53.52 144.387 55.96 145.627 57.84C147.58 59.42 148.687 59.92 151.087 59.92Z" fill="white"/>
<path fill-rule="evenodd" clip-rule="evenodd" d="M3.57316 69.3633C1.35602 68.0075 0 65.5937 0 63.0011V48.5258C0 47.9717 0.148469 47.4377 0.425611 46.9627C1.28673 45.4783 3.19704 44.974 4.68172 45.8446L37.3649 64.8909C39.2751 66.009 40.453 68.0474 40.453 70.2635V85.2633C40.453 85.946 40.2647 86.6286 39.9086 87.2124C38.8296 88.9736 36.5332 89.5277 34.7714 88.4492L3.57316 69.3633ZM52.2908 41.8768C54.201 42.9949 55.3789 45.0333 55.3789 47.2494V77.6841C55.3789 78.5847 54.8938 79.4157 54.112 79.8511L46.9557 83.8782C46.8667 83.9277 46.7677 83.9672 46.6688 83.9969V67.0974C46.6688 64.9107 45.5206 62.8825 43.64 61.7545L14.936 44.588V25.5118C14.936 24.9577 15.0845 24.4235 15.3616 23.9485C16.2227 22.4644 18.133 21.9598 19.6177 22.8305L52.2908 41.8768ZM66.5934 19.3972C68.5136 20.5053 69.6915 22.5633 69.6915 24.7797V69.2347C69.6915 70.1449 69.1866 70.9857 68.385 71.4212L61.6046 75.082V44.1328C61.6046 41.9464 60.4567 39.9277 58.5861 38.7997L29.2484 21.2078V3.11122C29.2484 2.55714 29.3969 2.02285 29.6641 1.54793C30.5252 0.0637887 32.4355 -0.440818 33.9203 0.419983L66.5934 19.3972Z" fill="#00D395"/>
</svg>
