<svg width="370" height="166" viewBox="0 0 370 166" fill="none" xmlns="http://www.w3.org/2000/svg">
<path d="M105.703 78.6648L168.286 83.0003" stroke="url(#paint0_linear)" stroke-width="0.468036" stroke-miterlimit="10"/>
<path d="M105.703 78.6648L168.286 83.0003" stroke="url(#paint1_linear)" stroke-width="0.468036" stroke-miterlimit="10"/>
<path d="M105.805 82.9998H168.288" stroke="url(#paint2_linear)" stroke-width="0.468036" stroke-miterlimit="10"/>
<path d="M106.402 87.0371L168.29 82.9995" stroke="url(#paint3_linear)" stroke-width="0.468036" stroke-miterlimit="10"/>
<path opacity="0.5" d="M71.0234 125.659L184.904 91.6045" stroke="url(#paint4_linear)" stroke-width="0.468036" stroke-miterlimit="10"/>
<path opacity="0.5" d="M298.484 125.626L184.637 91.6045" stroke="url(#paint5_linear)" stroke-width="0.468036" stroke-miterlimit="10"/>
<path opacity="0.5" d="M298.482 114.97L184.602 89.4536" stroke="url(#paint6_linear)" stroke-width="0.468036" stroke-miterlimit="10"/>
<path opacity="0.5" d="M298.484 104.313L184.637 87.3022" stroke="url(#paint7_linear)" stroke-width="0.468036" stroke-miterlimit="10"/>
<path opacity="0.5" d="M298.482 93.6568L184.602 85.1514" stroke="url(#paint8_linear)" stroke-width="0.468036" stroke-miterlimit="10"/>
<path opacity="0.5" d="M298.484 82.9998H184.637" stroke="url(#paint9_linear)" stroke-width="0.468036" stroke-miterlimit="10"/>
<path opacity="0.5" d="M298.482 72.3434L184.602 80.8489" stroke="url(#paint10_linear)" stroke-width="0.468036" stroke-miterlimit="10"/>
<path opacity="0.5" d="M298.484 61.6866L184.637 78.6975" stroke="url(#paint11_linear)" stroke-width="0.468036" stroke-miterlimit="10"/>
<path opacity="0.5" d="M298.482 51.0303L184.602 76.5466" stroke="url(#paint12_linear)" stroke-width="0.468036" stroke-miterlimit="10"/>
<path opacity="0.5" d="M298.831 41.3827L184.637 74.395" stroke="url(#paint13_linear)" stroke-width="0.468036" stroke-miterlimit="10"/>
<path opacity="0.5" d="M71.0195 40.3408L184.9 74.3957" stroke="url(#paint14_linear)" stroke-width="0.468036" stroke-miterlimit="10"/>
<path d="M93.0308 114.778C110.029 97.78 110.029 70.22 93.0308 53.2215C76.0323 36.223 48.4723 36.223 31.4738 53.2215C14.4753 70.22 14.4753 97.78 31.4738 114.778C48.4723 131.777 76.0323 131.777 93.0308 114.778Z" fill="#141E27" stroke="#40DCAF" stroke-width="0.468036" stroke-miterlimit="10"/>
<path d="M86.8762 108.623C100.475 95.0237 100.475 72.9758 86.8762 59.377C73.2774 45.7782 51.2294 45.7782 37.6306 59.377C24.0318 72.9758 24.0318 95.0238 37.6306 108.623C51.2294 122.221 73.2774 122.221 86.8762 108.623Z" fill="#141E27" stroke="#40DCAF" stroke-width="0.468036" stroke-miterlimit="10"/>
<path d="M338.597 114.779C355.596 97.7802 355.596 70.2203 338.597 53.2218C321.599 36.2233 294.039 36.2233 277.04 53.2218C260.042 70.2202 260.042 97.7802 277.04 114.779C294.039 131.777 321.599 131.777 338.597 114.779Z" fill="#141E27" stroke="#9489FE" stroke-width="0.468036" stroke-miterlimit="10"/>
<path d="M332.443 108.623C346.041 95.0238 346.041 72.9758 332.443 59.377C318.844 45.7782 296.796 45.7782 283.197 59.377C269.598 72.9758 269.598 95.0238 283.197 108.623C296.796 122.221 318.844 122.221 332.443 108.623Z" fill="#141E27" stroke="#9489FE" stroke-width="0.468036" stroke-miterlimit="10"/>
<path d="M184.902 74.395L176.297 82.9998L184.902 91.6045L193.506 82.9998L184.902 74.395Z" fill="#141E27" stroke="#F9FAFB" stroke-width="0.468036" stroke-miterlimit="10"/>
<path d="M169.612 84.3241C170.343 83.5929 170.343 82.4076 169.612 81.6764C168.881 80.9453 167.696 80.9453 166.964 81.6764C166.233 82.4076 166.233 83.5929 166.964 84.324C167.696 85.0552 168.881 85.0552 169.612 84.3241Z" fill="#40DCAF"/>
<path d="M169.612 84.3241C170.343 83.5929 170.343 82.4076 169.612 81.6764C168.881 80.9453 167.696 80.9453 166.964 81.6764C166.233 82.4076 166.233 83.5929 166.964 84.324C167.696 85.0552 168.881 85.0552 169.612 84.3241Z" fill="#40DCAF"/>
<defs>
<linearGradient id="paint0_linear" x1="151.664" y1="66.1413" x2="122.296" y2="95.5096" gradientUnits="userSpaceOnUse">
<stop stop-color="white"/>
<stop offset="1" stop-color="#121B23"/>
<stop offset="1" stop-color="#141E27"/>
</linearGradient>
<linearGradient id="paint1_linear" x1="151.664" y1="66.1413" x2="122.296" y2="95.5096" gradientUnits="userSpaceOnUse">
<stop stop-color="white"/>
<stop offset="1" stop-color="#121B23"/>
<stop offset="1" stop-color="#141E27"/>
</linearGradient>
<linearGradient id="paint2_linear" x1="152.769" y1="67.2585" x2="121.286" y2="98.741" gradientUnits="userSpaceOnUse">
<stop stop-color="white"/>
<stop offset="1" stop-color="#121B23"/>
</linearGradient>
<linearGradient id="paint3_linear" x1="153.922" y1="68.4256" x2="120.733" y2="101.615" gradientUnits="userSpaceOnUse">
<stop stop-color="white"/>
<stop offset="1" stop-color="#121B23"/>
</linearGradient>
<linearGradient id="paint4_linear" x1="165.015" y1="71.5683" x2="90.9045" y2="145.679" gradientUnits="userSpaceOnUse">
<stop stop-color="white"/>
<stop offset="1" stop-color="#121B23"/>
</linearGradient>
<linearGradient id="paint5_linear" x1="261.646" y1="88.5204" x2="221.439" y2="128.727" gradientUnits="userSpaceOnUse">
<stop stop-color="white"/>
<stop offset="1" stop-color="#121B23"/>
</linearGradient>
<linearGradient id="paint6_linear" x1="263.765" y1="79.9932" x2="219.316" y2="124.443" gradientUnits="userSpaceOnUse">
<stop stop-color="white"/>
<stop offset="1" stop-color="#121B23"/>
</linearGradient>
<linearGradient id="paint7_linear" x1="265.888" y1="71.4664" x2="217.197" y2="120.157" gradientUnits="userSpaceOnUse">
<stop stop-color="white"/>
<stop offset="1" stop-color="#121B23"/>
</linearGradient>
<linearGradient id="paint8_linear" x1="268.006" y1="62.941" x2="215.075" y2="115.871" gradientUnits="userSpaceOnUse">
<stop stop-color="white"/>
<stop offset="1" stop-color="#121B23"/>
</linearGradient>
<linearGradient id="paint9_linear" x1="270.127" y1="54.4156" x2="212.958" y2="111.584" gradientUnits="userSpaceOnUse">
<stop stop-color="white"/>
<stop offset="1" stop-color="#121B23"/>
</linearGradient>
<linearGradient id="paint10_linear" x1="272.243" y1="45.8915" x2="210.838" y2="107.297" gradientUnits="userSpaceOnUse">
<stop stop-color="white"/>
<stop offset="1" stop-color="#121B23"/>
</linearGradient>
<linearGradient id="paint11_linear" x1="274.363" y1="37.3675" x2="208.722" y2="103.008" gradientUnits="userSpaceOnUse">
<stop stop-color="white"/>
<stop offset="1" stop-color="#070A0E"/>
</linearGradient>
<linearGradient id="paint12_linear" x1="276.478" y1="28.8443" x2="206.603" y2="98.7202" gradientUnits="userSpaceOnUse">
<stop stop-color="white"/>
<stop offset="1" stop-color="#121B23"/>
</linearGradient>
<linearGradient id="paint13_linear" x1="278.598" y1="20.3205" x2="204.487" y2="94.4312" gradientUnits="userSpaceOnUse">
<stop stop-color="white"/>
<stop offset="1" stop-color="#121B23"/>
</linearGradient>
<linearGradient id="paint14_linear" x1="148.059" y1="37.2733" x2="107.853" y2="77.4798" gradientUnits="userSpaceOnUse">
<stop stop-color="white"/>
<stop offset="1" stop-color="#121B23"/>
</linearGradient>
</defs>
</svg>
