<?xml version="1.0" standalone="no"?>
<!DOCTYPE svg PUBLIC "-//W3C//DTD SVG 20010904//EN"
 "http://www.w3.org/TR/2001/REC-SVG-20010904/DTD/svg10.dtd">
<svg version="1.0" xmlns="http://www.w3.org/2000/svg"
 width="512.000000pt" height="512.000000pt" viewBox="0 0 512.000000 512.000000"
 preserveAspectRatio="xMidYMid meet">
<metadata>
Created by potrace 1.11, written by Peter Selinger 2001-2013
</metadata>
<g transform="translate(0.000000,512.000000) scale(0.100000,-0.100000)"
fill="#000000" stroke="none">
<path d="M2288 5106 c-54 -21 -87 -45 -113 -84 l-24 -36 -1 -548 c0 -356 3
-548 10 -548 10 0 74 -29 240 -108 58 -27 140 -66 183 -86 113 -53 210 -98
312 -146 50 -23 126 -59 170 -80 464 -218 760 -357 859 -404 65 -31 120 -56
121 -56 1 0 69 -32 151 -71 169 -80 232 -124 275 -190 57 -89 55 -58 55 -1037
-1 -666 2 -902 10 -902 17 0 484 198 520 221 69 42 65 -56 62 1416 l-3 1328
-23 43 c-31 58 -96 128 -146 157 -23 13 -122 60 -221 105 -191 87 -238 108
-350 160 -38 18 -88 40 -110 50 -38 16 -536 244 -693 316 -41 19 -75 34 -78
34 -2 0 -41 17 -86 39 -46 21 -202 93 -348 159 -627 285 -600 274 -670 278
-41 2 -79 -1 -102 -10z"/>
<path d="M1217 3808 c-50 -23 -83 -52 -104 -93 -14 -25 -16 -105 -16 -594 l0
-565 159 -76 c88 -41 191 -89 229 -107 39 -17 122 -56 185 -86 129 -60 198
-93 315 -147 117 -55 360 -169 495 -233 47 -22 150 -70 230 -107 520 -242 561
-263 614 -314 28 -27 60 -73 76 -109 l29 -62 1 -509 c0 -280 2 -511 4 -513 3
-3 187 74 291 122 17 8 86 39 154 70 69 30 133 63 144 72 49 45 47 11 46 980
-1 1008 3 956 -68 1048 -52 70 -117 108 -386 230 -132 60 -276 125 -320 146
-44 20 -206 95 -360 165 -468 212 -627 285 -685 311 -79 36 -275 126 -345 158
-33 15 -85 38 -115 52 -283 132 -360 166 -394 174 -56 14 -130 8 -179 -13z"/>
<path d="M152 2495 c-60 -18 -107 -53 -132 -97 -20 -36 -21 -48 -20 -502 1
-503 1 -497 58 -590 63 -103 121 -139 517 -326 127 -60 230 -110 725 -347 74
-36 176 -84 225 -108 50 -23 158 -75 240 -115 83 -40 191 -92 240 -115 50 -23
153 -73 230 -110 77 -37 186 -89 242 -116 57 -27 125 -54 153 -60 100 -21 213
7 278 71 63 60 63 54 62 568 0 257 -2 478 -5 491 -9 46 -50 117 -91 158 -51
50 -99 79 -229 136 -55 25 -134 61 -175 80 -41 19 -145 66 -230 105 -85 38
-184 83 -220 100 -36 16 -117 53 -180 82 -119 54 -191 88 -307 141 -38 17 -90
41 -118 54 -27 12 -75 34 -105 48 -65 30 -595 270 -660 299 -25 11 -79 36
-120 55 -243 113 -289 125 -378 98z"/>
</g>
</svg>
